<svg id="Capa_1" enable-background="new 0 0 512 512" height="512" viewBox="0 0 512 512" width="512" xmlns="http://www.w3.org/2000/svg"><g><g><path d="m456.969 407.139c27.744-39.712 44.031-88.02 44.031-140.139 0-135.31-109.69-245-245-245s-245 109.69-245 245c0 52.119 16.287 100.427 44.031 140.139z" fill="#3b3868"/></g><g><circle cx="256" cy="222" fill="#47477f" r="180"/></g><g><path d="m388.907 252.146c-18.31-6.409-23.303-19.114-15.388-44.081s-28.802-51.13-28.802-51.13h-88.717-88.717s-36.718 26.162-28.802 51.13c7.915 24.968 2.922 37.673-15.388 44.081-18.31 6.409-61.587 47.467-16.09 107.389h148.997 148.997c45.497-59.922 2.219-100.98-16.09-107.389z" fill="#e80054"/></g><g><path d="m429.558 352.438c-12.509-11.044-46.925-20.971-76.666-27.889h-193.784c-29.741 6.917-64.158 16.844-76.666 27.889-8.351 7.373-18.17 29.339-27.391 54.702 44.284 63.387 117.758 104.86 200.949 104.86s156.665-41.473 200.949-104.861c-9.22-25.363-19.04-47.328-27.391-54.701z" fill="#8ae1ff"/></g><g><path d="m176.349 320.739c-5.411 1.137-11.228 2.411-17.241 3.809l6.495 6.662c14.837 15.218 46.269 40.747 90.078 40.747 43.824 0 75.571-25.488 90.595-40.681l6.646-6.721c-6.024-1.401-11.851-2.677-17.271-3.816z" fill="#42c3fc"/></g><g><path d="m303.386 314.575v-93.841h-94.772v93.841c-.924.153-14.345 2.398-32.27 6.164 13.224 13.564 41.042 36.218 79.338 36.218 38.396 0 66.564-22.712 79.929-36.228-17.903-3.76-31.301-6.001-32.225-6.154z" fill="#fcad6d"/></g><g><path d="m208.614 220.734v93.841c94.723 0 94.772-53.4 94.772-53.4v-40.44h-94.772z" fill="#fd995b"/></g><g><path d="m144.849 328.024c-25.754 6.589-51.864 15.104-62.407 24.413-8.351 7.373-18.17 29.339-27.391 54.702 44.284 63.388 117.758 104.861 200.949 104.861-102.521-58.7-110.931-180.502-111.151-183.976z" fill="#42c3fc"/></g><g><ellipse cx="256" cy="22" fill="#e80054" rx="43.951" ry="22"/></g><g><g><path d="m256 22c-58.069 0-105.143 47.074-105.143 105.143v20.076h210.286v-20.076c0-58.069-47.074-105.143-105.143-105.143z" fill="#ff4155"/></g><g><path d="m275.807 143.063c-75.865-27.247-60.598-112.806-60.589-112.86-37.814 15.927-64.361 53.332-64.361 96.939v20.076h124.95z" fill="#e80054"/></g></g><g><g><path d="m331.058 159.567s10.385-25.285 28.897-19.415-.448 60.664-36.573 64.116z" fill="#fcad6d"/></g><g><path d="m180.942 159.567s-10.385-25.285-28.897-19.415.448 60.664 36.573 64.116z" fill="#fd995b"/></g><g><path d="m343.549 143.073-.038-.009-27.855-54.367s-1.298 31.537-12.146 54.367h-10.872c-.71-4.248-2.616-13.346-6.82-20.829 0 0-1.644 12.113-8.877 20.829h-68.491c-10.848-22.83-12.146-54.367-12.146-54.367l-27.853 54.363c-.029 1.226-.048 2.456-.048 3.696 0 64.505 39.219 140.155 87.597 140.155s87.597-75.651 87.597-140.155c0-1.236-.019-2.462-.048-3.683z" fill="#f9ba8f"/></g><g><path d="m208.403 146.754c0-1.24.031-2.465.06-3.691h-.013c-10.848-22.83-12.146-54.367-12.146-54.367l-27.853 54.363c-.029 1.226-.048 2.456-.048 3.696 0 64.505 39.219 140.155 87.597 140.155 6.881 0 13.576-1.535 20-4.346-38.741-16.953-67.597-80.48-67.597-135.81z" fill="#fcad6d"/></g></g><g><g><path d="m242.013 192.447 8.436-13.441c2.569-4.093 8.533-4.093 11.102 0l8.436 13.441c2.739 4.365-.398 10.038-5.551 10.038h-16.871c-5.154-.001-8.291-5.674-5.552-10.038z" fill="#fcad6d"/></g></g><g><g><path d="m235.384 240.87h41.233c4.111-3.622 7.258-8.309 9.01-13.631 1.584-4.811-2.069-9.754-7.134-9.754h-44.985c-5.065 0-8.718 4.943-7.134 9.754 1.752 5.322 4.899 10.009 9.01 13.631z" fill="#2d2d59"/></g><g><path d="m276.616 240.87c-5.493 4.849-12.714 7.798-20.616 7.798s-15.124-2.948-20.616-7.798c5.5-4.849 12.714-7.798 20.616-7.798s15.116 2.949 20.616 7.798z" fill="#ff4155"/></g></g><g><path d="m310.999 162.085c.043-3.495-1.371-7.004-4.242-9.539-4.675-4.128-11.84-4.128-16.515 0-2.871 2.535-4.284 6.044-4.242 9.539.055 4.538 5.629 6.716 8.838 3.507 2.022-2.022 5.3-2.022 7.322 0 3.21 3.21 8.784 1.032 8.839-3.507z" fill="#2d2d59"/></g><g><path d="m201.001 162.085c-.043-3.495 1.371-7.004 4.242-9.539 4.675-4.128 11.84-4.128 16.515 0 2.871 2.535 4.284 6.044 4.242 9.539-.055 4.538-5.629 6.716-8.838 3.507-2.022-2.022-5.3-2.022-7.322 0-3.21 3.21-8.784 1.032-8.839-3.507z" fill="#2d2d59"/></g><g><g><path d="m187.741 472 68.259 20 68.259-20c11.046 0 20-8.954 20-20 0-11.046-8.954-20-20-20h-136.518c-11.046 0-20 8.954-20 20 0 11.046 8.954 20 20 20z" fill="#ac7752"/></g><g><path d="m227.741 432h-40c-11.046 0-20 8.954-20 20 0 11.046 8.954 20 20 20l40 11.72v-11.72c-11.046 0-20-8.954-20-20 0-11.046 8.954-20 20-20z" fill="#9b6642"/></g><g><path d="m177.935 512h156.131c11.046 0 20-8.954 20-20 0-11.046-8.954-20-20-20h-156.131c-11.046 0-20 8.954-20 20 0 11.046 8.954 20 20 20z" fill="#ffc839"/></g><g><path d="m197.935 492c0-11.046 8.954-20 20-20h-40c-11.046 0-20 8.954-20 20 0 11.046 8.954 20 20 20h40c-11.046 0-20-8.954-20-20z" fill="#ffb332"/></g><g><g><path d="m181.093 434.189c.085-.042.17-.084.255-.126 4.207-2.124 9.311-.97 12.414 2.577 3.895 4.453 9.617 7.266 15.998 7.266s12.103-2.813 15.998-7.266c3.103-3.547 8.207-4.701 12.414-2.577.083.042.167.084.251.125 8.021 3.919 16.415-4.754 12.246-12.647-6.071-11.493-18.29-26.332-40.913-26.332-22.625 0-34.841 14.841-40.909 26.334-4.168 7.894 4.225 16.563 12.246 12.646z" fill="#65d33c"/></g></g><g><g><path d="m330.907 434.189c-.085-.042-.17-.084-.255-.126-4.207-2.124-9.311-.97-12.414 2.577-3.895 4.453-9.617 7.266-15.998 7.266s-12.103-2.813-15.998-7.266c-3.103-3.547-8.207-4.701-12.414-2.577-.083.042-.167.084-.251.125-8.021 3.919-16.415-4.754-12.246-12.647 6.071-11.493 18.29-26.332 40.913-26.332 22.625 0 34.841 14.841 40.909 26.334 4.168 7.894-4.225 16.563-12.246 12.646z" fill="#65d33c"/></g></g><g><path d="m284.665 448.899c-.085-.042-.17-.084-.255-.126-4.207-2.124-9.311-.97-12.414 2.577-3.895 4.453-9.617 7.266-15.998 7.266s-12.103-2.813-15.998-7.266c-3.103-3.547-8.207-4.701-12.414-2.577-.083.042-.167.084-.251.125-8.021 3.919-16.415-4.754-12.246-12.648 6.071-11.493 18.29-26.332 40.913-26.332 22.625 0 34.841 14.841 40.909 26.334 4.168 7.894-4.225 16.564-12.246 12.647z" fill="#89e56a"/></g><g><g><path d="m344.259 424.293h-176.518c-5.416 0-9.807-4.391-9.807-9.807v-1.09c0-54.16 43.905-98.065 98.065-98.065 54.16 0 98.065 43.905 98.065 98.065v1.09c.001 5.416-4.389 9.807-9.805 9.807z" fill="#ffc839"/></g></g><g><path d="m197.935 414.486v-1.09c0-47.306 33.497-86.786 78.065-96.021-6.457-1.338-13.146-2.044-20-2.044-54.16 0-98.065 43.905-98.065 98.065v1.09c0 5.416 4.391 9.807 9.807 9.807h40c-5.417 0-9.807-4.391-9.807-9.807z" fill="#ffb332"/></g></g><g><path d="m426.065 414.948h-30l5-103.948h20z" fill="#d3dcfb"/></g><g><g><path d="m85.935 414.948h30l-5-103.948h-20z" fill="#d3dcfb"/></g><g><ellipse cx="100.935" cy="302.66" fill="#fff" rx="30" ry="40"/></g></g><g><path d="m429.065 264.489v32.17c0 3.314-2.686 6-6 6-3.314 0-6-2.686-6-6v-32.17c0-3.314-2.686-6-6-6-3.314 0-6 2.686-6 6v32.17c0 3.314-2.686 6-6 6-3.314 0-6-2.686-6-6v-32.17c0-3.314-2.686-6-6-6-3.314 0-6 2.686-6 6v38.17c0 22.091 13.431 40 30 40s30-17.909 30-40v-38.17c0-3.314-2.686-6-6-6-3.313 0-6 2.687-6 6z" fill="#fff"/></g><g><path d="m223.5 134.968h-20c-4.142 0-7.5-3.358-7.5-7.5 0-4.142 3.358-7.5 7.5-7.5h20c4.142 0 7.5 3.358 7.5 7.5 0 4.142-3.358 7.5-7.5 7.5z" fill="#cc0053"/></g><g><path d="m308.5 134.968h-20c-4.142 0-7.5-3.358-7.5-7.5 0-4.142 3.358-7.5 7.5-7.5h20c4.142 0 7.5 3.358 7.5 7.5 0 4.142-3.358 7.5-7.5 7.5z" fill="#cc0053"/></g><g><g><path d="m382.399 389.948c0 6.904 5.596 12.5 12.5 12.5h-8.333c-6.904 0-12.5 5.596-12.5 12.5 0 6.904 5.596 12.5 12.5 12.5h8.333c-6.904 0-12.5 5.596-12.5 12.5 0 6.904 5.596 12.5 12.5 12.5h8.333c-6.904 0-12.5 5.596-12.5 12.5 0 6.904 5.596 12.5 12.5 12.5h30.833c27.614 0 50-22.386 50-50 0-27.614-22.386-50-50-50h-39.167c-6.903 0-12.499 5.597-12.499 12.5z" fill="#f9ba8f"/></g><g><g><path d="m392.418 458.698c-1.066 1.84-1.686 3.971-1.686 6.25 0 6.904 5.596 12.5 12.5 12.5h8.083c3.452 0 6.25-2.798 6.25-6.25 0-3.452-2.798-6.25-6.25-6.25h-8.083c-4.624 0-8.652-2.517-10.814-6.25z" fill="#fcad6d"/></g><g><path d="m384.085 433.698c-1.066 1.84-1.686 3.971-1.686 6.25 0 6.904 5.596 12.5 12.5 12.5h16.417c3.452 0 6.25-2.798 6.25-6.25 0-3.452-2.798-6.25-6.25-6.25h-16.417c-4.624 0-8.652-2.517-10.814-6.25z" fill="#fcad6d"/></g><g><path d="m384.085 383.698c-1.066 1.84-1.686 3.971-1.686 6.25 0 6.904 5.596 12.5 12.5 12.5h16.417c3.452 0 6.25-2.798 6.25-6.25 0-3.452-2.798-6.25-6.25-6.25h-16.417c-4.624 0-8.652-2.517-10.814-6.25z" fill="#fcad6d"/></g><g><path d="m375.751 408.698c-1.066 1.84-1.686 3.971-1.686 6.25 0 6.904 5.596 12.5 12.5 12.5h24.75c3.452 0 6.25-2.798 6.25-6.25 0-3.452-2.798-6.25-6.25-6.25h-24.75c-4.624 0-8.651-2.517-10.814-6.25z" fill="#fcad6d"/></g></g></g><g><g><path d="m129.601 389.948c0 6.904-5.596 12.5-12.5 12.5h8.333c6.904 0 12.5 5.596 12.5 12.5 0 6.904-5.596 12.5-12.5 12.5h-8.333c6.904 0 12.5 5.596 12.5 12.5 0 6.904-5.596 12.5-12.5 12.5h-8.333c6.904 0 12.5 5.596 12.5 12.5 0 6.904-5.596 12.5-12.5 12.5h-30.833c-27.614 0-50-22.386-50-50 0-27.614 22.386-50 50-50h39.167c6.903 0 12.499 5.597 12.499 12.5z" fill="#f9ba8f"/></g><g><g><path d="m119.582 458.698c1.066 1.84 1.686 3.971 1.686 6.25 0 6.904-5.596 12.5-12.5 12.5h-8.083c-3.452 0-6.25-2.798-6.25-6.25 0-3.452 2.798-6.25 6.25-6.25h8.083c4.624 0 8.652-2.517 10.814-6.25z" fill="#fcad6d"/></g><g><path d="m127.915 433.698c1.066 1.84 1.686 3.971 1.686 6.25 0 6.904-5.596 12.5-12.5 12.5h-16.417c-3.452 0-6.25-2.798-6.25-6.25 0-3.452 2.798-6.25 6.25-6.25h16.417c4.624 0 8.652-2.517 10.814-6.25z" fill="#fcad6d"/></g><g><path d="m127.915 383.698c1.066 1.84 1.686 3.971 1.686 6.25 0 6.904-5.596 12.5-12.5 12.5h-16.417c-3.452 0-6.25-2.798-6.25-6.25 0-3.452 2.798-6.25 6.25-6.25h16.417c4.624 0 8.652-2.517 10.814-6.25z" fill="#fcad6d"/></g><g><path d="m136.249 408.698c1.066 1.84 1.686 3.971 1.686 6.25 0 6.904-5.596 12.5-12.5 12.5h-24.75c-3.452 0-6.25-2.798-6.25-6.25 0-3.452 2.798-6.25 6.25-6.25h24.75c4.624 0 8.651-2.517 10.814-6.25z" fill="#fcad6d"/></g></g></g></g></svg>