<svg height="512" viewBox="0 0 53 58" width="512" xmlns="http://www.w3.org/2000/svg"><g id="Page-1" fill="none" fill-rule="evenodd"><g id="026---Edit-File" fill-rule="nonzero"><path id="Shape" d="m5 52v-48c0-2.209139 1.790861-4 4-4h40c2.209139 0 4 1.790861 4 4v40l-12 12h-32c-2.209139 0-4-1.790861-4-4z" fill="#b0d3f0"/><path id="Shape" d="m41 56v-8c0-2.209139 1.790861-4 4-4h8z" fill="#90bae1"/><g fill="#285680"><path id="Shape" d="m13 7h-2c-.5522847 0-1-.44771525-1-1s.4477153-1 1-1h2c.5522847 0 1 .44771525 1 1s-.4477153 1-1 1z"/><path id="Shape" d="m47 7h-30c-.5522847 0-1-.44771525-1-1s.4477153-1 1-1h30c.5522847 0 1 .44771525 1 1s-.4477153 1-1 1z"/><path id="Shape" d="m13 13h-2c-.5522847 0-1-.4477153-1-1s.4477153-1 1-1h2c.5522847 0 1 .4477153 1 1s-.4477153 1-1 1z"/><path id="Shape" d="m40 13h-23c-.5522847 0-1-.4477153-1-1s.4477153-1 1-1h23c.5522847 0 1 .4477153 1 1s-.4477153 1-1 1z"/><path id="Shape" d="m13 19h-2c-.5522847 0-1-.4477153-1-1s.4477153-1 1-1h2c.5522847 0 1 .4477153 1 1s-.4477153 1-1 1z"/><path id="Shape" d="m33 19h-16c-.5522847 0-1-.4477153-1-1s.4477153-1 1-1h16c.5522847 0 1 .4477153 1 1s-.4477153 1-1 1z"/></g><path id="Shape" d="m49 35c-.5522847 0-1-.4477153-1-1v-14c0-.5522847.4477153-1 1-1s1 .4477153 1 1v14c0 .5522847-.4477153 1-1 1z" fill="#ecf0f1"/><path id="Shape" d="m49 41c-.5522847 0-1-.4477153-1-1v-2c0-.5522847.4477153-1 1-1s1 .4477153 1 1v2c0 .5522847-.4477153 1-1 1z" fill="#ecf0f1"/><path id="Shape" d="m31.17 33.9-20.5 20.51-3.54-3.54 12.73-12.73 7.78-7.77z" fill="#c03a2b"/><path id="Shape" d="m27.64 30.37-7.78 7.77-12.73 12.73-3.54-3.54 20.51-20.5z" fill="#e64c3c"/><path id="Shape" d="m10.67 54.41-5.87 2.2-3.39 1.27c-.36805091.1398584-.78391455.0507302-1.06232238-.2276776-.27840782-.2784078-.36753599-.6942715-.22767762-1.0623224l1.27-3.39 2.2-5.87z" fill="#fac176"/><path id="Rectangle-path" d="m24.05 26.949h10v4h-10z" fill="#95a5a5" transform="matrix(.707 .707 -.707 .707 28.979 -12.062)"/><path id="Shape" d="m30.5863698 22.4144069h4c1.6568543 0 3 1.3431457 3 3v3h-10v-3c0-1.6568543 1.3431458-3 3-3z" fill="#fb7b76" transform="matrix(.707 .707 -.707 .707 27.515 -15.598)"/><path id="Shape" d="m4.8 56.61-3.39 1.27c-.36805091.1398584-.78391455.0507302-1.06232238-.2276776-.27840782-.2784078-.36753599-.6942715-.22767762-1.0623224l1.27-3.39c1.64593283.4771833 2.93281675 1.7640672 3.41 3.41z" fill="#3f5c6c"/></g></g></svg>