<svg height="512pt" viewBox="0 -30 512 512" width="512pt" xmlns="http://www.w3.org/2000/svg"><g fill-rule="evenodd"><path d="m64.039062 202.796875c-124.195312 216.378906 331.941407 206.683594 259.257813 14.21875-5.929687-1.664063-10.515625-15.710937-16.792969-16.554687-55.863281-7.625-109.300781-2.074219-182.832031-5.519532-11.390625-.234375-38.285156-.847656-59.632813 7.855469zm0 0" fill="#e6e6e6"/><path d="m0 305.875v122.09375c0 13.226562 10.804688 24.03125 24.03125 24.03125h463.933594c13.199218 0 24.035156-10.804688 24.035156-24.035156v-122.089844h-437.652344c-5.664062 0-10.308594-4.640625-10.308594-10.308594v-193.777344c0-17.609374-14.394531-32.007812-32.003906-32.007812-17.636718.003906-32.035156 14.398438-32.035156 32.007812zm0 0" fill="#b5722f"/><path d="m110.03125 194.882812c1.375 52.386719 38.546875 96.363282 89.300781 110.992188h95.402344l25.902344-42.984375-17.957031-45.875c-1.34375 12.9375-5.667969 21.699219-15.246094 31.335937-.234375.234376-.496094.496094-.757813.726563-8.207031 8.03125-18.574219 14.3125-29.609375 18.632813-20.441406 7.941406-43.21875 9.082031-59.078125 1.867187l-37.144531-16.90625c-25.640625-11.652344-36.707031-34.050781-37.171875-57.730469-3.390625-.058594-8.117187-.175781-13.640625-.058594zm0 0" fill="#c2c7cc"/><path d="m255.984375 333.414062c-3.445313 38.136719 36.386719 78.140626 75.664063 81.03125h118.851562c47.394531 0 61.5-9.867187 61.5-54.867187v-53.699219h-249.269531c-2.863281 8.320313-5.722657 16.320313-6.746094 27.535156zm0 0" fill="#91561a"/><path d="m237.617188 107.628906-5.695313 12.46875 28.210937 12.847656c3.035157 1.371094 6.015626 3.15625 8.90625 5.257813 4.847657-10.308594-.640624-26.601563-11.125-31.363281l-8.234374-3.738282c-4.558594-2.074218-9.988282-.058593-12.0625 4.527344zm0 0" fill="#eda93b"/><path d="m222.988281 116.039062c-6.105469 95.984376-51.074219 69.671876-62.144531 136.632813l37.144531 16.90625c15.859375 7.214844 38.636719 6.074219 59.078125-1.867187 11.386719-4.441407 22.046875-10.980469 30.371094-19.359376 9.578125-9.636718 13.898438-18.398437 15.242188-31.335937.117187-.902344.175781-1.839844.261718-2.832031.234375-3.417969.234375-6.890625 0-10.394532-.554687-8.265624-2.394531-16.617187-5.199218-24.558593-5.984376-16.878907-16.46875-32.003907-28.703126-41.027344-2.890624-2.101563-5.871093-3.886719-8.90625-5.257813l-28.210937-12.847656zm0 0" fill="#ffdda6"/><path d="m222.988281 116.039062c-54.316406-24.703124-98.703125 27.738282-99.316406 76.300782-.03125.878906-.03125 1.753906 0 2.601562.464844 23.679688 11.535156 46.078125 37.171875 57.730469 11.070312-66.957031 56.039062-40.648437 62.144531-136.632813zm0 0" fill="#808080"/><path d="m222.988281 116.039062c-38.140625-17.347656-71.371093 3.328126-88.015625 34.019532 18.25-20.207032 45.496094-30.457032 75.808594-16.648438l8.9375 4.0625.933594.4375c1.050781-6.511718 1.839844-13.753906 2.335937-21.871094zm0 0" fill="#666"/><path d="m222.988281 116.039062c-.496093 7.914063-1.257812 15.007813-2.25 21.375l27.15625 12.351563c3.066407 1.402344 6.046875 3.183594 8.910157 5.285156 12.261718 8.992188 22.71875 24.121094 28.703124 41.027344 2.835938 7.941406 4.644532 16.265625 5.199219 24.558594.234375 3.472656.234375 6.976562 0 10.394531-.058593.964844-.144531 1.929688-.234375 2.832031-.613281 5.753907-1.8125 10.691407-3.796875 15.214844.265625-.234375.527344-.496094.761719-.730469 9.578125-9.632812 13.898438-18.394531 15.242188-31.332031.117187-.90625.175781-1.839844.261718-2.832031.234375-3.417969.234375-6.890625 0-10.398438-.554687-8.261718-2.394531-16.613281-5.199218-24.554687-5.984376-16.878907-16.46875-32.007813-28.703126-41.03125-2.890624-2.101563-5.871093-3.882813-8.90625-5.253907l-28.210937-12.847656zm0 0" fill="#fcc368"/><path d="m294.738281 305.875c-2.921875 31.335938 16.292969 59.367188 47.191407 66.578125h117.886718c40.210938 0 52.183594-8.117187 52.183594-45.085937v-162.152344c0-9.636719-7.886719-17.523438-17.519531-17.523438h-123.730469c-63.660156 0-64.246094 22.691406-67.808594 56.097656.234375 3.503907.234375 6.976563 0 10.394532-.085937.992187-.144531 1.925781-.261718 2.832031 11.125 57.351563-5.375 61.441406-7.941407 88.859375zm0 0" fill="#f78411"/><path d="m371.070312 294.488281-3.621093 11.386719-4.90625 15.476562c-1.984375 6.308594-6.308594 9.550782-9.082031 7.828126-16.292969-10.222657-29.84375 11.589843-10.949219 22.28125 4.640625 2.597656.671875 9.519531.058593 12.117187-.324218 1.457031-.527343 2.859375-.644531 4.261719-.144531 1.578125-.144531 3.125 0 4.613281 2.074219 23.742187 36.210938 33.230469 52.242188 0 1.257812-2.597656 2.394531-5.460937 3.417969-8.585937l18.6875-57.992188c4.5-13.929688 3.449218-24.207031-.84375-37.960938l-9.902344-31.742187h-37.640625l-.117188 26.191406 4.410157 16.003907c1.167968 7.652343 1.199218 8.820312-1.109376 16.121093zm0 0" fill="#ffdda6"/><path d="m396.621094 267.914062c4.265625 13.753907 5.347656 24.03125.847656 37.960938l-13.488281 41.875-5.226563 16.121094c-.996094 3.125-2.132812 5.984375-3.390625 8.582031-5.109375 10.574219-12.027343 16.820313-19.183593 19.652344 11.855468 4.9375 28.238281.496093 37.992187-19.652344 1.253906-2.597656 2.394531-5.460937 3.417969-8.582031l4.875-15.128906 13.8125-42.863282c0-.03125 0-.058594.03125-.089844 0 0 0-.027343 0-.058593.378906-1.136719.699218-2.25.992187-3.328125 3.269531-12.207032 2.042969-21.871094-1.871093-34.429688 0-.027344 0-.027344 0-.058594l-9.898438-31.738281-.351562.4375c0 .027344 0 .027344-.027344.027344-.03125.058594-.058594.089844-.089844.144531-1.984375 2.511719-4.4375 4.734375-7.035156 6.777344-2.394532 1.839844-4.90625 3.5625-7.390625 5.253906zm0 0" fill="#fcc368"/><path d="m302.941406 203.789062 30.195313 42.050782c7.679687 10.714844 21.375 19.328125 34.632812 16.527344 1.871094-.382813 3.738281-.996094 5.578125-1.871094 4.558594-2.1875 9.902344-6.511719 14.136719-9.488282 6.101563-4.324218 13.109375-8.46875 17.695313-14.398437l.347656-.4375c9.082031-12.058594 9.84375-29.171875.671875-42.136719l-23.390625-33.171875c-3.792969-5.226562-7.855469-9.578125-12.058594-13.171875-33.960938-28.730468-78.085938-6.101562-73.003906 31.539063 2.800781 7.941406 4.640625 16.292969 5.195312 24.558593zm0 0" fill="#64b0d9"/><path d="m364.761719 175.667969 23.390625 33.171875c4.117187 5.839844 6.222656 12.5 6.484375 19.183594.117187 2.71875-.117188 5.460937-.613281 8.148437-1.019532 5.316406-3.242188 10.394531-6.539063 14.835937.027344-.03125.054687-.058593.117187-.089843 3.386719-2.394531 7.035157-4.730469 10.421876-7.359375 2.660156-2.074219 5.113281-4.320313 7.125-6.921875.03125 0 .03125 0 .03125-.027344l.347656-.4375c1.898437-2.511719 3.417968-5.285156 4.585937-8.148437 4.378907-10.921876 3.328125-23.742188-3.914062-33.988282l-23.390625-33.175781c-3.792969-5.226563-7.855469-9.578125-12.058594-13.167969-24.734375-20.9375-54.898438-14.601562-67.457031 4.964844 14.425781-5.898438 33.085937-3.941406 49.410156 9.867188 4.203125 3.566406 8.265625 7.917968 12.058594 13.144531zm0 0" fill="#4a83c9"/></g><path d="m350.335938 87.121094h-37.085938c-3.152344 0-5.996094-1.898438-7.199219-4.816406-1.203125-2.917969-.527343-6.269532 1.707031-8.496094l21.894532-21.785156h-17.601563c-4.300781 0-7.785156-3.488282-7.785156-7.792969 0-4.300781 3.484375-7.789063 7.785156-7.789063h36.476563c3.152344 0 5.996094 1.902344 7.195312 4.820313 1.203125 2.914062.53125 6.269531-1.707031 8.496093l-21.894531 21.785157h18.214844c4.300781 0 7.785156 3.488281 7.785156 7.789062 0 4.304688-3.484375 7.789063-7.785156 7.789063zm0 0" fill="#666"/><path d="m426.816406 50.648438h-37.085937c-3.152344 0-5.996094-1.902344-7.199219-4.820313s-.527344-6.269531 1.710938-8.492187l21.878906-21.757813h-17.589844c-4.300781 0-7.785156-3.484375-7.785156-7.789063 0-4.300781 3.484375-7.789062 7.785156-7.789062h36.476562c3.152344 0 5.996094 1.902344 7.195313 4.820312 1.203125 2.917969.527344 6.273438-1.707031 8.496094l-21.882813 21.753906h18.203125c4.300782 0 7.789063 3.488282 7.789063 7.789063s-3.488281 7.789063-7.789063 7.789063zm0 0" fill="#666"/></svg>