<svg id="Capa_1" enable-background="new 0 0 512 512" height="512" viewBox="0 0 512 512" width="512" xmlns="http://www.w3.org/2000/svg"><g><path d="m394.87 232.593c-.751-.625-1.703-.968-2.681-.968-.977 0-1.929.344-2.68.968l-27.136 22.568c-.403.335-.882.513-1.385.513-1.085 0-2.208-.822-2.208-2.198v-88.359l-19.064 2.679c-.104.015-.207.021-.309.021-1.063 0-1.97-.762-2.155-1.812l-4.821-27.336c-.224-1.278-1.012-2.362-2.159-2.973l-24.508-13.032c-1.048-.558-1.461-1.83-.941-2.896l12.167-24.948c.57-1.167.57-2.507 0-3.675l-12.167-24.949c-.52-1.066-.106-2.338.941-2.896l24.508-13.033c.919-.489 1.591-1.289 1.944-2.242h-226.683c-2.845 0-5.151 2.306-5.151 5.151v279.631c7.145-1.82 14.626-2.791 22.331-2.791 49.897 0 90.492 40.594 90.492 90.492 0 12.597-2.59 24.599-7.261 35.506h193.51c2.845 0 5.151-2.306 5.151-5.151v-210.173z" fill="#d8ecfe"/><path d="m122.713 330.017c10.997 0 21.541 1.974 31.299 5.583v-282.423c0-2.845 2.306-5.151 5.151-5.151h-53.63c-2.845 0-5.151 2.306-5.151 5.151v279.631c7.146-1.821 14.627-2.791 22.331-2.791z" fill="#c4e2ff"/><g><path d="m315.049 98.801c-.195-.015-.389-.03-.588-.03h-123.935c-4.143 0-7.5 3.358-7.5 7.5s3.357 7.5 7.5 7.5h117.222z" fill="#8ac9fe"/><g><g><path d="m337.253 166.006-2.477-14.042h-103.501c-4.143 0-7.5 3.358-7.5 7.5s3.357 7.5 7.5 7.5h106.407c-.211-.273-.365-.597-.429-.958z" fill="#8ac9fe"/></g><g><path d="m207.581 166.964h-57.491c-4.143 0-7.5-3.358-7.5-7.5s3.357-7.5 7.5-7.5h57.491c4.143 0 7.5 3.358 7.5 7.5s-3.357 7.5-7.5 7.5z" fill="#8ac9fe"/></g><path d="m358.781 186.754c-1.134-.689-2.46-1.093-3.884-1.093h-49.449c-4.143 0-7.5 3.358-7.5 7.5s3.357 7.5 7.5 7.5h49.449c1.424 0 2.75-.404 3.884-1.093z" fill="#8ac9fe"/><g><path d="m280.725 200.661h-130.635c-4.143 0-7.5-3.358-7.5-7.5s3.357-7.5 7.5-7.5h130.635c4.143 0 7.5 3.358 7.5 7.5s-3.358 7.5-7.5 7.5z" fill="#8ac9fe"/></g><path d="m358.781 220.45c-1.134-.689-2.46-1.093-3.884-1.093h-204.807c-4.143 0-7.5 3.358-7.5 7.5s3.357 7.5 7.5 7.5h204.808c1.424 0 2.75-.404 3.884-1.093v-12.814z" fill="#8ac9fe"/></g><g><path d="m354.897 279.121h-204.807c-4.143 0-7.5-3.358-7.5-7.5s3.357-7.5 7.5-7.5h204.808c4.143 0 7.5 3.358 7.5 7.5s-3.358 7.5-7.501 7.5z" fill="#8ac9fe"/></g><g><path d="m354.897 312.817h-59.751c-4.143 0-7.5-3.358-7.5-7.5s3.357-7.5 7.5-7.5h59.751c4.143 0 7.5 3.358 7.5 7.5s-3.357 7.5-7.5 7.5z" fill="#8ac9fe"/></g><g><path d="m271.453 312.817h-121.363c-4.143 0-7.5-3.358-7.5-7.5s3.357-7.5 7.5-7.5h121.363c4.143 0 7.5 3.358 7.5 7.5s-3.357 7.5-7.5 7.5z" fill="#8ac9fe"/></g><path d="m354.897 331.514h-204.807c-1.658 0-3.185.544-4.426 1.455 10.568 2.773 20.386 7.412 29.082 13.545h180.152c4.143 0 7.5-3.358 7.5-7.5s-3.358-7.5-7.501-7.5z" fill="#8ac9fe"/><g><path d="m354.897 380.21h-97.867c-4.143 0-7.5-3.358-7.5-7.5s3.357-7.5 7.5-7.5h97.867c4.143 0 7.5 3.358 7.5 7.5s-3.357 7.5-7.5 7.5z" fill="#8ac9fe"/></g><g fill="#8ac9fe"><path d="m233.336 365.21h-39.045c3.609 4.661 6.773 9.682 9.429 15h29.616c4.143 0 7.5-3.358 7.5-7.5s-3.357-7.5-7.5-7.5z"/><path d="m354.897 398.906h-144.304c1.195 4.859 1.999 9.87 2.37 15h141.934c4.143 0 7.5-3.358 7.5-7.5s-3.357-7.5-7.5-7.5z"/></g></g><g><path d="m417.175 163.934c-.194-.027-.389-.041-.583-.041-1.091 0-2.125.418-2.911 1.176l-19.968 19.282c-.411.396-.952.615-1.522.615-.571 0-1.112-.219-1.523-.616l-19.968-19.281c-.786-.759-1.82-1.177-2.911-1.177-.194 0-.389.014-.584.041l-9.423 1.324v88.219c0 2.705 3.153 4.183 5.232 2.454l27.135-22.568c1.183-.984 2.899-.984 4.082 0l27.136 22.568c2.08 1.729 5.232.251 5.232-2.454v-88.219z" fill="#fe646f"/><path d="m370.005 165.789c-.707-.682-1.688-1.001-2.661-.865l-9.563 1.344v87.209c0 2.705 3.153 4.183 5.232 2.454l26.91-22.38v-48.528z" fill="#fd4755"/><g><path d="m394.407.896 19.968 19.281c.707.682 1.688 1.001 2.661.865l27.488-3.862c1.702-.239 3.289.913 3.587 2.606l4.821 27.336c.171.967.777 1.802 1.645 2.264l24.508 13.033c1.518.807 2.124 2.672 1.37 4.217l-12.167 24.949c-.431.883-.431 1.915 0 2.798l12.167 24.949c.754 1.545.148 3.41-1.37 4.217l-24.508 13.033c-.867.461-1.474 1.296-1.645 2.264l-4.821 27.336c-.299 1.693-1.885 2.845-3.587 2.606l-27.488-3.862c-.973-.137-1.954.182-2.661.865l-19.968 19.281c-1.237 1.194-3.197 1.194-4.434 0l-19.968-19.281c-.707-.682-1.688-1.001-2.661-.865l-27.488 3.862c-1.702.239-3.289-.913-3.587-2.606l-4.821-27.336c-.171-.967-.777-1.802-1.645-2.264l-24.508-13.033c-1.518-.807-2.124-2.672-1.37-4.217l12.167-24.949c.431-.883.431-1.915 0-2.798l-12.167-24.949c-.754-1.545-.148-3.41 1.37-4.217l24.508-13.033c.867-.461 1.474-1.296 1.645-2.264l4.821-27.336c.299-1.693 1.885-2.845 3.587-2.606l27.488 3.862c.973.137 1.954-.182 2.661-.865l19.968-19.281c1.237-1.195 3.197-1.195 4.434 0z" fill="#fed402"/></g><g><g><circle cx="392.19" cy="92.983" fill="#97d729" r="46.464"/></g><g><path d="m378.379 92.983c0-19.915 12.532-36.897 30.138-43.507-5.08-1.907-10.58-2.957-16.327-2.957-25.662 0-46.465 20.803-46.465 46.464s20.803 46.464 46.465 46.464c5.747 0 11.246-1.05 16.327-2.958-17.606-6.61-30.138-23.591-30.138-43.506z" fill="#8bc727"/></g><g><path d="m392.189 146.947c-29.756 0-53.964-24.208-53.964-53.964s24.208-53.965 53.964-53.965 53.965 24.208 53.965 53.965c0 29.756-24.209 53.964-53.965 53.964zm0-92.929c-21.484 0-38.964 17.479-38.964 38.965 0 21.485 17.479 38.964 38.964 38.964s38.965-17.479 38.965-38.964-17.479-38.965-38.965-38.965z" fill="#e8b800"/></g><g><path d="m389.238 113.622c-1.919 0-3.839-.732-5.304-2.197l-18.049-18.049c-2.929-2.929-2.929-7.678 0-10.606 2.93-2.929 7.678-2.929 10.607 0l12.745 12.746 18.648-18.649c2.93-2.929 7.678-2.929 10.607 0s2.929 7.678 0 10.606l-23.952 23.952c-1.463 1.464-3.383 2.197-5.302 2.197z" fill="#fff"/></g></g></g><g><g><circle cx="122.713" cy="420.508" fill="#fed402" r="91.492"/></g><path d="m70.555 420.508c0-43.771 30.74-80.356 71.807-89.362-6.331-1.387-12.902-2.13-19.649-2.13-50.53 0-91.492 40.962-91.492 91.492s40.963 91.492 91.492 91.492c6.747 0 13.318-.743 19.649-2.13-41.067-9.005-71.807-45.591-71.807-89.362z" fill="#fac600"/><g><path d="m122.713 464.458c-15.713 0-28.497-12.784-28.497-28.497 0-4.142 3.357-7.5 7.5-7.5s7.5 3.358 7.5 7.5c0 7.442 6.055 13.497 13.497 13.497s13.497-6.055 13.497-13.497c0-4.142 3.357-7.5 7.5-7.5s7.5 3.358 7.5 7.5c0 15.713-12.784 28.497-28.497 28.497z" fill="#c57a44"/></g><g><g><g><path d="m83.047 424.075c-4.143 0-7.5-3.358-7.5-7.5v-17.111c0-4.142 3.357-7.5 7.5-7.5s7.5 3.358 7.5 7.5v17.111c0 4.142-3.358 7.5-7.5 7.5z" fill="#c57a44"/></g><g><path d="m162.38 424.075c-4.143 0-7.5-3.358-7.5-7.5v-17.111c0-4.142 3.357-7.5 7.5-7.5s7.5 3.358 7.5 7.5v17.111c0 4.142-3.358 7.5-7.5 7.5z" fill="#c57a44"/></g></g></g></g></g></svg>