<svg id="Capa_1" enable-background="new 0 0 512 512" height="512" viewBox="0 0 512 512" width="512" xmlns="http://www.w3.org/2000/svg"><g><g><path d="m367.956 111.745 10.074 20.411c.892 1.808 2.616 3.06 4.611 3.35l22.525 3.273c5.023.73 7.029 6.903 3.394 10.446l-16.299 15.888c-1.443 1.407-2.102 3.434-1.761 5.421l3.848 22.434c.858 5.003-4.393 8.818-8.886 6.456l-20.147-10.592c-1.784-.938-3.916-.938-5.7 0l-20.147 10.592c-4.493 2.362-9.744-1.453-8.886-6.456l3.848-22.434c.341-1.987-.318-4.014-1.761-5.421l-16.299-15.888c-3.635-3.543-1.629-9.716 3.394-10.446l22.525-3.273c1.995-.29 3.719-1.543 4.611-3.35l10.074-20.411c2.245-4.552 8.736-4.552 10.982 0z" fill="#fed402"/></g><g><g><path d="m358.507 181.99 3.848-22.434c.341-1.987-.318-4.014-1.761-5.421l-16.299-15.888c-.85-.828-1.38-1.802-1.647-2.815-.12.025-.237.057-.359.075l-22.525 3.273c-5.023.73-7.029 6.903-3.394 10.446l16.299 15.888c1.443 1.407 2.102 3.434 1.761 5.421l-3.848 22.434c-.858 5.003 4.393 8.818 8.886 6.456l20.147-10.592c.554-.291 1.143-.481 1.743-.591-2.002-1.229-3.312-3.564-2.851-6.252z" fill="#fac600"/></g></g><g><path d="m297.319 2.56 7.555 15.309c.669 1.356 1.962 2.295 3.458 2.513l16.894 2.455c3.767.547 5.272 5.177 2.546 7.834l-12.225 11.916c-1.083 1.055-1.577 2.576-1.321 4.066l2.886 16.826c.644 3.752-3.295 6.613-6.664 4.842l-15.11-7.944c-1.338-.703-2.937-.703-4.275 0l-15.11 7.944c-3.37 1.772-7.308-1.09-6.664-4.842l2.886-16.826c.256-1.49-.238-3.01-1.321-4.066l-12.225-11.916c-2.726-2.657-1.222-7.287 2.546-7.834l16.894-2.455c1.496-.217 2.789-1.157 3.458-2.513l7.555-15.309c1.684-3.413 6.552-3.413 8.237 0z" fill="#fed402"/></g><g><path d="m287.052 58.478 2.886-16.826c.256-1.49-.238-3.01-1.321-4.065l-12.225-11.916c-1.416-1.381-1.683-3.291-1.091-4.887l-14.127 2.053c-3.767.547-5.272 5.177-2.546 7.834l12.225 11.916c1.083 1.055 1.576 2.575 1.321 4.065l-2.886 16.826c-.644 3.752 3.295 6.613 6.664 4.842l11.968-6.292c-.727-.948-1.102-2.188-.868-3.55z" fill="#fac600"/></g><g><path d="m231.813 378.87h53.746c6.009 0 11.62 2.379 15.799 6.7 1.953 2.019 3.451 4.346 4.494 6.859 32.858-10.276 56.703-40.949 56.703-77.193 0-44.663-36.206-80.869-80.869-80.869s-80.869 36.206-80.869 80.869c-.001 25.839 12.132 48.829 30.996 63.634z" fill="#97d729"/><path d="m230.54 377.87h41.82c-18.153-14.826-29.753-37.368-29.753-62.635 0-37.435 25.442-68.916 59.973-78.129-6.667-1.779-13.668-2.74-20.896-2.74-44.663 0-80.869 36.206-80.869 80.869.001 25.258 11.586 47.805 29.725 62.635z" fill="#8bc727"/><g><path d="m276.217 346.945c-1.989 0-3.897-.79-5.303-2.197l-33.435-33.435c-2.929-2.929-2.929-7.678 0-10.606 2.929-2.929 7.678-2.929 10.606 0l28.132 28.132 39.067-39.068c2.929-2.929 7.678-2.929 10.606 0 2.929 2.929 2.929 7.678 0 10.606l-44.371 44.371c-1.405 1.407-3.312 2.197-5.302 2.197z" fill="#fff"/></g></g><g><path d="m333.283 444.334c6.405 0 12.426-2.494 16.955-7.023l59.047-59.047 4.389-5.802c-.153-.162-.287-.334-.445-.493-8.973-8.973-23.521-8.973-32.494 0l-65.198 65.198c-3.116 3.116-7.04 5.227-11.276 6.167l1.405 1z" fill="#ffe5c2"/><g><g><path d="m447.223 371.406c-8.973-8.973-23.521-8.973-32.494 0l-65.198 65.198c-4.309 4.309-10.153 6.73-16.247 6.73h-108.514l.106 7.492c.127 8.96 7.52 16.25 16.481 16.25h101.854c6.413 0 12.442-2.497 16.975-7.032l65.199-65.198c4.145-4.145 9.656-6.428 15.519-6.428 4.557 0 8.892 1.395 12.548 3.956 1.533-7.336-.534-15.273-6.229-20.968z" fill="#fed2a4"/></g></g><g><path d="m457.151 394.118c-8.973-8.973-23.521-8.973-32.494 0l-65.198 65.198c-4.309 4.309-10.153 6.73-16.247 6.73h-101.855c-8.449 0-15.332-6.786-15.451-15.235l-.16-11.316c-.122-8.619 6.832-15.671 15.451-15.671h43.759c12.488 0 23.149-9.709 23.566-22.19.436-13.049-10.013-23.764-22.964-23.764h-148.944v110.862l31.443 12.568c17.685 7.069 36.556 10.7 55.601 10.7h129.095c12.172 0 23.846-4.836 32.453-13.443l71.945-71.945c8.973-8.973 8.973-23.521 0-32.494z" fill="#ffe5c2"/></g><g><g><path d="m384.904 490.881h-129.095c-19.045 0-37.916-3.632-55.601-10.7l-18.486-7.389c-7.825-3.128-12.957-10.705-12.957-19.132v-75.79h-32.152v110.862l31.442 12.567c17.685 7.069 36.556 10.7 55.601 10.7h129.095c12.172 0 23.846-4.835 32.453-13.443l8.539-8.539c-2.89.569-5.849.864-8.839.864z" fill="#fed2a4"/></g></g><g><path d="m54.78 511.598h76.204c3.678 0 6.66-2.982 6.66-6.66v-147.45c0-3.678-2.982-6.66-6.66-6.66h-76.204c-3.678 0-6.66 2.982-6.66 6.66v147.45c0 3.678 2.981 6.66 6.66 6.66z" fill="#b3dafe"/></g><g><path d="m91.272 504.938v-147.45c0-3.678 2.982-6.66 6.66-6.66h-43.152c-3.678 0-6.66 2.982-6.66 6.66v147.45c0 3.678 2.982 6.66 6.66 6.66h43.153c-3.679 0-6.661-2.982-6.661-6.66z" fill="#8ac9fe"/></g></g><g><g><path d="m255.543 154.73v-27.063c0-3.125-2.533-5.658-5.658-5.658h-19.709c-2.475 0-4.635-1.617-5.395-3.972-1.255-3.885-2.818-7.631-4.658-11.212-1.133-2.205-.752-4.882 1.002-6.635l13.946-13.946c2.21-2.21 2.21-5.792 0-8.002l-19.137-19.137c-2.21-2.21-5.792-2.21-8.002 0l-13.946 13.945c-1.753 1.753-4.43 2.135-6.635 1.002-3.581-1.84-7.327-3.403-11.212-4.658-2.355-.76-3.972-2.921-3.972-5.395v-19.709c0-3.125-2.533-5.658-5.658-5.658h-27.063c-3.125 0-5.658 2.533-5.658 5.658v19.709c0 2.475-1.617 4.635-3.972 5.395-3.885 1.255-7.631 2.818-11.212 4.658-2.205 1.133-4.882.752-6.635-1.002l-13.948-13.946c-2.21-2.21-5.792-2.21-8.002 0l-19.137 19.137c-2.21 2.21-2.21 5.792 0 8.002l13.946 13.946c1.753 1.753 2.135 4.43 1.002 6.635-1.84 3.581-3.403 7.327-4.658 11.212-.76 2.355-2.921 3.972-5.395 3.972h-19.709c-3.125 0-5.658 2.533-5.658 5.658v27.063c0 3.125 2.533 5.658 5.658 5.658h19.709c2.475 0 4.635 1.617 5.395 3.972 1.255 3.885 2.818 7.631 4.658 11.212 1.133 2.205.752 4.882-1.002 6.635l-13.946 13.946c-2.21 2.21-2.21 5.792 0 8.002l19.137 19.137c2.21 2.21 5.792 2.21 8.002 0l13.946-13.946c1.753-1.753 4.43-2.135 6.635-1.002 3.581 1.84 7.327 3.403 11.212 4.658 2.355.76 3.972 2.921 3.972 5.395v19.71c0 3.125 2.533 5.658 5.658 5.658h27.063c3.125 0 5.658-2.533 5.658-5.658v-19.71c0-2.475 1.617-4.635 3.972-5.395 3.885-1.255 7.631-2.818 11.212-4.658 2.205-1.133 4.882-.752 6.635 1.002l13.946 13.946c2.21 2.21 5.792 2.21 8.002 0l19.137-19.137c2.21-2.21 2.21-5.792 0-8.002l-13.946-13.946c-1.753-1.753-2.135-4.43-1.002-6.635 1.84-3.581 3.403-7.327 4.658-11.212.76-2.355 2.921-3.972 5.395-3.972h19.709c3.127.002 5.66-2.532 5.66-5.657z" fill="#baafb9"/></g><path d="m117.796 179.451c-10.332-9.51-16.82-23.136-16.82-38.252s6.488-28.742 16.82-38.252c11.312-19.797 31.116-34.115 54.462-37.966-.057-.32-.092-.647-.092-.981v-19.71c0-3.125-2.533-5.658-5.658-5.658h-27.063c-3.125 0-5.658 2.533-5.658 5.658v19.709c0 2.475-1.617 4.635-3.972 5.395-3.885 1.255-7.631 2.818-11.212 4.658-2.205 1.133-4.882.752-6.635-1.002l-13.947-13.946c-2.21-2.21-5.792-2.21-8.002 0l-19.137 19.137c-2.21 2.21-2.21 5.792 0 8.002l13.946 13.946c1.753 1.753 2.135 4.43 1.002 6.635-1.84 3.581-3.403 7.327-4.658 11.212-.76 2.355-2.921 3.972-5.395 3.972h-19.709c-3.125 0-5.658 2.533-5.658 5.658v27.063c0 3.125 2.533 5.658 5.658 5.658h19.709c2.475 0 4.635 1.617 5.395 3.972 1.255 3.885 2.818 7.631 4.658 11.212 1.133 2.205.752 4.882-1.002 6.635l-13.946 13.946c-2.21 2.21-2.21 5.792 0 8.002l19.137 19.137c2.21 2.21 5.792 2.21 8.002 0l13.946-13.946c1.753-1.753 4.43-2.134 6.635-1.002 3.581 1.84 7.327 3.403 11.212 4.658 2.355.76 3.972 2.921 3.972 5.395v19.71c0 3.125 2.533 5.658 5.658 5.658h27.063c3.125 0 5.658-2.533 5.658-5.658v-19.71c0-.334.035-.661.091-.981-23.344-3.849-43.148-18.167-54.46-37.964z" fill="#aa9ea9"/><g><circle cx="152.976" cy="141.199" fill="#e5e1e5" r="44.501"/></g><g><path d="m152.977 193.2c-28.673 0-52.001-23.328-52.001-52.001s23.328-52.001 52.001-52.001 52 23.328 52 52.001-23.327 52.001-52 52.001zm0-89.002c-20.402 0-37.001 16.599-37.001 37.001s16.599 37.001 37.001 37.001 37-16.599 37-37.001-16.598-37.001-37-37.001z" fill="#9b8e99"/></g><g><circle cx="152.976" cy="141.199" fill="#baafb9" r="17.5"/></g><g><path d="m151.571 141.199c0-6.761 3.84-12.615 9.453-15.53-2.411-1.252-5.143-1.97-8.047-1.97-9.665 0-17.5 7.835-17.5 17.5s7.835 17.5 17.5 17.5c2.904 0 5.636-.719 8.047-1.97-5.613-2.915-9.453-8.77-9.453-15.53z" fill="#aa9ea9"/></g></g></g></svg>