<svg id="Capa_1" enable-background="new 0 0 512 512" height="512" viewBox="0 0 512 512" width="512" xmlns="http://www.w3.org/2000/svg"><g><path d="m206.306 111.097h38.428c1.682 0 3.045 1.363 3.045 3.045v78.232c2.48-.261 4.995-.4 7.543-.4h54.211c2.547 0 5.063.139 7.542.4v-78.232c0-1.682 1.363-3.045 3.045-3.045h38.428c2.639 0 4.028-3.127 2.26-5.086l-76.121-84.33c-1.209-1.34-3.312-1.34-4.521 0l-76.121 84.33c-1.767 1.959-.377 5.086 2.261 5.086z" fill="#0593fc"/><path d="m206.306 111.097h38.428c1.682 0 3.045 1.363 3.045 3.045v77.222c2.48-.256 4.995-.39 7.542-.39h15.069v-97.621c0-1.682-1.363-3.045-3.045-3.045h-49.125l-14.175 15.703c-1.767 1.959-.377 5.086 2.261 5.086z" fill="#0182fc"/><g fill="#0593fc"><path d="m167.419 142.77-24.879-24.879c-1.406-1.407-3.314-2.197-5.303-2.197s-3.897.79-5.303 2.197l-24.879 24.879c-2.929 2.929-2.929 7.678 0 10.606 1.464 1.464 3.384 2.197 5.303 2.197s3.839-.732 5.303-2.197l12.076-12.076v146.095c0 4.142 3.358 7.5 7.5 7.5s7.5-3.358 7.5-7.5v-146.095l12.076 12.076c2.929 2.929 7.678 2.929 10.606 0 2.929-2.928 2.929-7.677 0-10.606z"/><path d="m457.802 142.77-24.879-24.879c-1.407-1.407-3.314-2.197-5.304-2.197s-3.896.79-5.304 2.197l-24.88 24.879c-2.929 2.929-2.929 7.678 0 10.606 2.93 2.929 7.678 2.93 10.607 0l12.076-12.076v146.095c0 4.142 3.357 7.5 7.5 7.5s7.5-3.358 7.5-7.5v-146.094l12.075 12.076c1.465 1.465 3.384 2.197 5.304 2.197 1.919 0 3.839-.732 5.304-2.197 2.929-2.929 2.929-7.678.001-10.607z"/></g><g><path d="m196.311 305.769h18.864v-10.152c0-7.275 5.918-13.193 13.193-13.193h44.849c3.258 0 6.436-.633 9.444-1.881l43.946-18.225c1.556-.645 3.175-.972 4.813-.972.941 0 1.875.111 2.774.331 9.117 2.228 15.484 10.348 15.484 19.747v24.345h18.864c5.481 0 10.387 2.507 13.633 6.435v-48.586c0-40.12-32.524-72.644-72.644-72.644h-54.211c-40.12 0-72.644 32.524-72.644 72.644v48.586c3.248-3.928 8.154-6.435 13.635-6.435z" fill="#d88a55"/><path d="m196.311 304.768h17.864v-9.152c0-6.619 4.538-12.164 10.667-13.734v-18.265c0-40.12 32.524-72.644 72.644-72.644h-42.164c-40.12 0-72.644 32.524-72.644 72.644v47.089c3.409-3.645 8.248-5.938 13.633-5.938z" fill="#c57a44"/><path d="m393.107 408.83h-68.323v33.396c0 1.623-1.369 2.627-2.638 2.627-.581 0-1.139-.199-1.612-.575l-33.851-26.88c-1.205-.957-2.717-1.484-4.256-1.484s-3.051.527-4.256 1.484l-33.851 26.88c-.474.376-1.031.575-1.613.575-1.269 0-2.638-1.004-2.638-2.627v-33.396h-48.37c1.575 5.849 2.429 11.991 2.429 18.331 0 32.037-21.468 59.137-50.769 67.717v9.359c0 4.287 3.475 7.763 7.763 7.763h262.608c4.287 0 7.763-3.475 7.763-7.763v-67.021c.001-15.677-12.708-28.386-28.386-28.386z" fill="#97d729"/><g><path d="m185.256 504.237v-40.815c-9.19 15.6-24.122 27.399-41.895 32.506v8.308c0 4.287 3.475 7.763 7.763 7.763h41.895c-4.288.001-7.763-3.474-7.763-7.762z" fill="#8bc727"/></g><path d="m286.684 417.398c-1.205-.957-2.717-1.484-4.256-1.484s-3.051.527-4.256 1.484l-3.244 2.576v92.026h15v-92.026z" fill="#a2e62e"/><path d="m298.638 395.602h-32.42c-9.972 0-19.277-2.885-27.147-7.849v54.473c0 3.03 3.499 4.72 5.872 2.835l33.851-26.88c2.128-1.69 5.139-1.69 7.267 0l33.851 26.88c2.373 1.884 5.872.194 5.872-2.835v-54.473c-7.869 4.963-17.175 7.849-27.146 7.849z" fill="#8bc727"/><g><g><path d="m215.175 344.559v-39.791h-18.864c-10.316 0-18.679 8.363-18.679 18.679v15.459c0 10.316 8.363 18.679 18.679 18.679h20.555c-1.099-4.16-1.691-8.525-1.691-13.026z" fill="#ffe5c2"/><path d="m368.544 304.768h-18.864v39.791c0 4.501-.592 8.866-1.691 13.026h20.555c10.316 0 18.679-8.363 18.679-18.679v-15.459c0-10.316-8.363-18.679-18.679-18.679z" fill="#fed2a4"/></g><g><path d="m326.226 261.394c2.597-1.077 5.476-1.356 8.207-.688 9.326 2.279 16.247 10.69 16.247 20.718v63.136c0 28.742-23.3 52.043-52.043 52.043h-32.42c-28.742 0-52.042-23.3-52.042-52.043v-48.942c0-7.839 6.355-14.193 14.193-14.193h44.849c3.11 0 6.189-.613 9.062-1.804z" fill="#ffe5c2"/></g><g><g><path d="m245.677 344.559v-48.942c0-7.839 6.355-14.193 14.193-14.193h-31.502c-7.839 0-14.193 6.355-14.193 14.193v48.942c0 28.742 23.3 52.042 52.042 52.042h31.502c-28.742 0-52.042-23.3-52.042-52.042z" fill="#fed2a4"/></g></g><g><path d="m282.428 373.647c-13.909 0-25.226-10.403-25.226-23.189 0-4.142 3.357-7.5 7.5-7.5s7.5 3.358 7.5 7.5c0 4.516 4.587 8.189 10.226 8.189s10.226-3.674 10.226-8.189c0-4.142 3.357-7.5 7.5-7.5s7.5 3.358 7.5 7.5c-.001 12.787-11.317 23.189-25.226 23.189z" fill="#f6a96c"/></g><g><g><path d="m256.665 325.55c-4.142 0-7.5-3.358-7.5-7.5v-7.528c0-4.142 3.358-7.5 7.5-7.5 4.143 0 7.5 3.358 7.5 7.5v7.528c0 4.142-3.358 7.5-7.5 7.5z" fill="#f6a96c"/></g><g><path d="m308.189 325.55c-4.143 0-7.5-3.358-7.5-7.5v-7.528c0-4.142 3.357-7.5 7.5-7.5s7.5 3.358 7.5 7.5v7.528c0 4.142-3.357 7.5-7.5 7.5z" fill="#f6a96c"/></g></g></g></g><g fill="#0182fc"><path d="m207.187 27.076-24.879-24.879c-1.406-1.407-3.314-2.197-5.303-2.197s-3.897.79-5.303 2.197l-24.879 24.879c-2.929 2.929-2.929 7.678 0 10.606 2.929 2.929 7.678 2.929 10.606 0l12.076-12.076v52.011c0 4.142 3.358 7.5 7.5 7.5s7.5-3.358 7.5-7.5v-52.011l12.076 12.076c1.464 1.464 3.384 2.197 5.303 2.197s3.839-.732 5.303-2.197c2.93-2.928 2.93-7.677 0-10.606z"/><path d="m418.033 27.076-24.879-24.879c-1.407-1.407-3.314-2.197-5.304-2.197s-3.896.79-5.304 2.197l-24.88 24.879c-2.929 2.929-2.929 7.678 0 10.606s7.677 2.93 10.607 0l12.076-12.076v52.011c0 4.142 3.357 7.5 7.5 7.5s7.5-3.358 7.5-7.5v-52.01l12.075 12.076c1.465 1.465 3.384 2.197 5.304 2.197 1.919 0 3.839-.732 5.304-2.197 2.93-2.929 2.93-7.678.001-10.607z"/></g><g><g fill="#b3dafe"><path d="m120.802 445.071c.111-.863-.155-1.733-.73-2.387-.575-.653-1.404-1.028-2.275-1.028h-30.714c-.313 0-.604-.139-.801-.382-.196-.243-.272-.557-.207-.863l17.435-81.945c-29.758 8.674-51.509 36.136-51.509 68.695 0 36.28 27.004 66.234 62.005 70.91z"/><path d="m141.78 357.943-11.327 45.406c-.227.912-.026 1.858.552 2.599.579.741 1.449 1.165 2.388 1.165h30.145c.516 0 .784.339.875.485s.278.536.05.999l-44.232 90.043c1.106.051 2.216.084 3.334.084 39.524 0 71.564-32.04 71.564-71.564.001-33.228-22.649-61.16-53.349-69.217z"/></g><g fill="#8ac9fe"><path d="m115.4 487.207c-19.657-12.751-32.67-34.87-32.67-60.047 0-16.901 5.868-32.424 15.668-44.664l5.113-24.031c-29.758 8.674-51.509 36.136-51.509 68.695 0 36.28 27.004 66.234 62.005 70.91z"/><path d="m120.232 498.64c1.106.051 2.216.084 3.334.084 5.276 0 10.413-.588 15.364-1.671-5.363-1.174-10.494-2.961-15.333-5.262z"/></g><g><path d="m163.539 406.113h-30.145c-1.32 0-2.289-1.24-1.97-2.522l13.428-53.832c.32-1.281-.649-2.522-1.97-2.522h-36.361c-.958 0-1.786.67-1.986 1.608l-19.438 91.358c-.269 1.263.694 2.453 1.986 2.453h30.714c1.224 0 2.169 1.075 2.014 2.288l-8.303 64.762c-.292 2.276 2.824 3.213 3.836 1.153l50.017-101.821c.662-1.349-.319-2.925-1.822-2.925z" fill="#fed402"/></g><g><g><path d="m106.122 440.203 19.438-91.358c.199-.937 1.027-1.608 1.986-1.608h-21.025c-.958 0-1.786.67-1.986 1.608l-19.438 91.358c-.269 1.263.694 2.453 1.986 2.453h21.025c-1.292 0-2.255-1.19-1.986-2.453z" fill="#fac600"/></g></g></g></g></svg>