<svg id="Capa_1" enable-background="new 0 0 512 512" height="512" viewBox="0 0 512 512" width="512" xmlns="http://www.w3.org/2000/svg"><g><g fill="#97d729"><path d="m424.262 363.991h-26.063v78.899l1 1.484h24.062l1.001-1.484z"/><path d="m510.905 435.953-60.443-78.566-1 2.554v82.949l1 1.484h56.297c4.341 0 6.793-4.981 4.146-8.421z"/><path d="m372.998 273-1-1.641-23.87-23.87-69.509 90.35.143 1.982 70.391 103.069 2.223 1.484h20.622l1-1.484z"/></g><g><g><path d="m347.513 248.288-68.894 89.551 20.154 29.511 72.962-94.839z" fill="#8bc727"/><g><path d="m170.052 190.315c.757-1.108 1.961-1.744 3.303-1.744s2.546.636 3.303 1.744l4.197 6.146v-55.048h-14l-1 1v54.048z" fill="#d88a55"/><path d="m225.431 259.958-1.456.359-29.51 43.208c-.785 1.15-2.034 1.811-3.427 1.811-1.394 0-2.643-.66-3.428-1.811l-12.799-18.74c-1.147-1.68-3.047-2.682-5.08-2.682-2.034 0-3.933 1.002-5.08 2.681l-31.74 46.478c-.785 1.15-2.034 1.81-3.428 1.81-1.393 0-2.643-.659-3.428-1.811l-26.131-38.262h-1.211l-97.793 143.194c-2.371 3.472.115 8.181 4.32 8.181h346.136z" fill="#0593fc"/><path d="m43.673 436.193 76.417-111.893-21.376-31.3-97.794 143.193c-2.371 3.472.115 8.181 4.32 8.181h42.752c-4.204 0-6.69-4.709-4.319-8.181z" fill="#0182fc"/><g><path d="m173.985 285.349 12.799 18.741c2.045 2.995 6.462 2.995 8.507 0l30.14-44.132-47.947-70.206c-1.985-2.907-6.273-2.907-8.258 0l-70.512 103.247 26.516 38.826c2.045 2.995 6.462 2.995 8.507 0l31.741-46.476c2.045-2.995 6.462-2.995 8.507 0z" fill="#fff3de"/></g><g><path d="m169.226 189.752-70.512 103.247 21.376 31.3 74.641-109.293-17.247-25.254c-1.986-2.907-6.273-2.907-8.258 0z" fill="#ffe5c2"/></g><g><path d="m240.6 142.413h-74.745v-53.746c0-2.761 2.239-5 5-5h69.745c2.761 0 5 2.239 5 5v48.746c0 2.762-2.239 5-5 5z" fill="#fe646f"/></g><path d="m202 83.667h-31.146c-2.761 0-5 2.239-5 5v53.746h31.146v-53.746c0-2.761 2.239-5 5-5z" fill="#fd4755"/></g><g><path d="m496.814 207.927c-5.107-5.107-13.387-5.107-18.494 0l-40.011 40.011c-5.821 8.774-15.783 14.573-27.079 14.573-11.295 0-21.258-5.799-27.078-14.572l-40.011-40.011c-5.107-5.107-13.387-5.107-18.494 0-5.107 5.107-5.107 13.387 0 18.494l46.352 46.352v171.601h27.201v-79.383h24.062v79.383h27.201v-171.602l46.352-46.352c5.106-5.107 5.106-13.387-.001-18.494z" fill="#fee45a"/><path d="m381.296 245.021-37.156-37.093c-5.107-5.107-13.387-5.107-18.494 0-5.107 5.107-5.107 13.387 0 18.494l46.352 46.352v171.601h18.319l.068-188.155c-3.785-3.018-6.899-6.835-9.089-11.199z" fill="#fed402"/><g><circle cx="411.23" cy="230.032" fill="#fed402" r="33.478"/></g><path d="m403 230.032c0-14.022 8.624-26.023 20.854-31.008-3.897-1.588-8.156-2.47-12.624-2.47-18.49 0-33.478 14.989-33.478 33.478s14.989 33.478 33.478 33.478c4.468 0 8.727-.882 12.624-2.47-12.23-4.984-20.854-16.986-20.854-31.008z" fill="#fac600"/></g></g><g><path d="m381.682 164.011c-1.92 0-3.839-.732-5.304-2.196l-44.297-44.298c-2.929-2.93-2.929-7.678 0-10.607 2.931-2.929 7.679-2.927 10.607 0l44.297 44.298c2.929 2.93 2.929 7.678 0 10.607-1.464 1.463-3.384 2.196-5.303 2.196z" fill="#b3dafe"/></g><g><path d="m288.901 252.524c-1.919 0-3.839-.732-5.304-2.196l-32.966-32.966c-2.929-2.93-2.929-7.678 0-10.607 2.93-2.928 7.678-2.928 10.607 0l32.966 32.966c2.929 2.93 2.929 7.678 0 10.607-1.464 1.464-3.384 2.196-5.303 2.196z" fill="#b3dafe"/></g><g><path d="m465.385 341.975c-1.919 0-3.839-.732-5.304-2.196l-38.89-38.89c-2.929-2.93-2.929-7.678 0-10.607 2.93-2.928 7.678-2.928 10.607 0l38.89 38.89c2.929 2.93 2.929 7.678 0 10.607-1.464 1.463-3.384 2.196-5.303 2.196z" fill="#8ac9fe"/></g><g><path d="m102.503 113.532c-1.92 0-3.839-.732-5.304-2.197l-30.905-30.906c-2.929-2.929-2.929-7.677.001-10.606 2.929-2.929 7.678-2.928 10.606.001l30.905 30.906c2.929 2.929 2.929 7.677-.001 10.606-1.463 1.464-3.383 2.196-5.302 2.196z" fill="#b3dafe"/></g><g><path d="m97.353 201.097c-1.919 0-3.839-.732-5.304-2.196l-21.634-21.634c-2.929-2.93-2.929-7.678 0-10.607 2.93-2.928 7.678-2.928 10.607 0l21.634 21.634c2.929 2.93 2.929 7.678 0 10.607-1.465 1.463-3.385 2.196-5.303 2.196z" fill="#b3dafe"/></g><g><path d="m260.121 411.254c-1.919 0-3.839-.732-5.304-2.196l-50.479-50.479c-2.929-2.93-2.929-7.678 0-10.607 2.93-2.928 7.678-2.928 10.607 0l50.48 50.479c2.929 2.93 2.929 7.678 0 10.607-1.465 1.464-3.385 2.196-5.304 2.196z" fill="#b3dafe"/></g></g></g></svg>