<?xml version="1.0" encoding="iso-8859-1"?>
<!-- Generator: Adobe Illustrator 19.0.0, SVG Export Plug-In . SVG Version: 6.00 Build 0)  -->
<svg version="1.1" id="Capa_1" xmlns="http://www.w3.org/2000/svg" xmlns:xlink="http://www.w3.org/1999/xlink" x="0px" y="0px"
	 viewBox="0 0 512 512" style="enable-background:new 0 0 512 512;" xml:space="preserve">
<path style="fill:#B78046;" d="M428.681,397.768c3.487,0,6.821,0.632,9.91,1.773v-55.979h-26.805v59.722
	C416.521,399.818,422.358,397.768,428.681,397.768z"/>
<path style="fill:#99CC56;" d="M496.813,428.342c-1.567-0.019-3.078,0.201-4.503,0.621c-1.871,0.553-3.897-0.403-4.644-2.206
	c-3.387-8.177-11.297-14.09-20.511-14.537c-2.91-0.141-5.708,0.253-8.308,1.088c-2.201,0.707-4.539-0.305-5.674-2.321
	c-4.957-8.806-14.371-14.761-25.197-14.761c-13.389,0-24.608,9.11-27.903,21.46l25.098,41.404c32.612,0,62.461,0,71.454,0
	c8.701,0,15.714-7.228,15.362-16.008C511.664,435.015,504.887,428.44,496.813,428.342z"/>
<path style="fill:#8DBC42;" d="M480.602,458.246c-0.451-15.18-13.305-27.066-28.492-27.066h-11.185
	c-5.096,0-9.821-2.661-12.463-7.019l-14.668-24.197c-6.673,3.78-11.696,10.134-13.721,17.723l25.098,41.404
	c21.358,0,41.528,0,55.434,0C480.605,458.81,480.61,458.53,480.602,458.246z"/>
<path style="fill:#56BB98;" d="M501.266,339.484c-4.903-17.492-12.84-37.401-23.307-54.419c-1.649-2.682,0.283-6.128,3.43-6.128
	h14.952c2.949,0,4.903-3.057,3.655-5.729c-5.251-11.236-17.671-36.814-30.876-56.857c-1.768-2.683,0.145-6.25,3.358-6.25h13.128
	c3.066,0,5.009-3.282,3.533-5.97c-7.817-14.227-29.645-51.418-61.044-84.526c-1.575-1.661-4.239-1.661-5.814,0
	c-12.778,13.473-24.984,27.621-34.292,40.623c11.64,17.04,19.791,31.331,23.729,38.567c1.251,2.3-0.416,5.097-3.034,5.097H392.24
	c-2.765,0-4.396,3.08-2.862,5.38c14.546,21.802,28.322,50.422,33.579,61.732c1.063,2.288-0.609,4.902-3.132,4.902h-18.21
	c-2.708,0-4.365,2.976-2.928,5.271c11.498,18.365,20.149,40.123,25.361,59.047c0.604,2.192-1.059,4.353-3.333,4.353h3.458h73.207
	C500.038,344.577,501.984,342.044,501.266,339.484z"/>
<path style="fill:#57AA8F;" d="M420.714,344.577h3.458h21.038c0.476-3.225,0.302-6.548-0.579-9.743
	c-3.821-13.874-8.88-27.637-14.789-40.387c4.467-1.823,8.328-4.998,11.02-9.218c4.384-6.871,4.951-15.386,1.516-22.779
	c-3.718-8.002-11.574-24.403-21.06-41.314c3.581-2.011,6.645-4.938,8.797-8.56c4.258-7.163,4.429-16.16,0.445-23.484
	c-4.958-9.11-14.875-26.361-28.965-46.341c-4.957,5.942-9.557,11.818-13.608,17.477c11.64,17.04,19.791,31.331,23.729,38.567
	c1.251,2.3-0.416,5.097-3.035,5.097h-16.444c-2.765,0-4.396,3.08-2.862,5.38c14.547,21.802,28.322,50.422,33.579,61.732
	c1.063,2.288-0.61,4.902-3.132,4.902h-18.21c-2.708,0-4.365,2.976-2.928,5.27c11.498,18.365,20.149,40.123,25.361,59.047
	C424.651,342.416,422.988,344.577,420.714,344.577z"/>
<path style="fill:#54CCA1;" d="M280.702,203.892h16.444c2.764,0,4.396,3.08,2.861,5.38c-4.409,6.608-9.759,13.842-13.811,21.03
	l69.271,114.275h66.261c2.274,0,3.937-2.161,3.333-4.353c-5.212-18.923-13.863-40.681-25.361-59.047
	c-1.437-2.294,0.22-5.27,2.928-5.27h18.211c2.522,0,4.194-2.615,3.132-4.902c-5.256-11.311-19.032-39.931-33.578-61.733
	c-1.535-2.299,0.097-5.38,2.861-5.38h16.444c2.619,0,4.286-2.797,3.034-5.097c-7.625-14.011-31.01-54.445-65.043-90.158
	c-1.351-1.418-3.628-1.418-4.979,0c-34.033,35.713-57.417,76.146-65.043,90.158C276.416,201.096,278.082,203.892,280.702,203.892z"
	/>
<g>
	<path style="fill:#56BB98;" d="M280.702,203.892h14.238l-10.407-17.168c-2.951,4.996-5.261,9.124-6.865,12.071
		C276.416,201.095,278.082,203.892,280.702,203.892z"/>
	<path style="fill:#56BB98;" d="M355.468,344.577h24.752l-81.164-133.896c-4.212,6.222-9.092,12.938-12.859,19.621L355.468,344.577z
		"/>
</g>
<path style="fill:#FCB75B;" d="M425.898,459.091H34.417l182.769-301.51c2.749-4.536,7.668-7.306,12.972-7.306
	s10.222,2.77,12.972,7.306L425.898,459.091z"/>
<path style="fill:#FED159;" d="M425.898,459.091H34.417l182.769-301.51c2.749-4.536,7.668-7.306,12.972-7.306
	s10.222,2.77,12.972,7.306L425.898,459.091z"/>
<g>
	<path style="fill:#FCB75B;" d="M240.313,154.186c-2.75-2.48-6.351-3.911-10.155-3.911c-5.304,0-10.222,2.77-12.972,7.306
		L34.417,459.091h20.31l182.769-301.51C238.273,156.298,239.229,155.163,240.313,154.186z"/>
	<path style="fill:#FCB75B;" d="M230.158,150.275c-5.01,0-10.019,2.435-12.972,7.306L34.417,459.091h195.741L230.158,150.275
		L230.158,150.275z"/>
</g>
<path style="fill:#ED9A37;" d="M230.158,150.275c-5.009,0-10.019,2.435-12.972,7.306L34.417,459.091h20.637l175.104-288.865V150.275
	z"/>
<g>
	<path style="fill:#FED159;" d="M158.573,395.87v63.221l71.584-71.584h-63.221C162.318,387.507,158.573,391.251,158.573,395.87z"/>
	<circle style="fill:#FED159;" cx="109.05" cy="121.83" r="35.417"/>
</g>
<path style="fill:#FCB75B;" d="M93.927,121.832c0-16.032,10.655-29.569,25.268-33.933c-3.216-0.961-6.621-1.483-10.149-1.483
	c-19.56,0-35.417,15.857-35.417,35.417s15.857,35.417,35.417,35.417c3.528,0,6.933-0.523,10.149-1.484
	C104.582,151.401,93.927,137.864,93.927,121.832z"/>
<g>
	<path style="fill:#FED159;" d="M109.046,74.041c-4.204,0-7.612-3.408-7.612-7.612v-13.52c0-4.204,3.408-7.612,7.612-7.612
		s7.612,3.408,7.612,7.612v13.52C116.658,70.633,113.249,74.041,109.046,74.041z"/>
	<path style="fill:#FED159;" d="M109.046,198.368c-4.204,0-7.612-3.408-7.612-7.612v-13.52c0-4.204,3.408-7.612,7.612-7.612
		s7.612,3.408,7.612,7.612v13.52C116.658,194.96,113.249,198.368,109.046,198.368z"/>
	<path style="fill:#FED159;" d="M64.487,88.039l-9.56-9.561c-2.973-2.973-2.973-7.792,0-10.765s7.793-2.973,10.765,0l9.56,9.561
		c2.973,2.973,2.972,7.792,0,10.765C72.28,91.011,67.459,91.012,64.487,88.039z"/>
	<path style="fill:#FED159;" d="M152.399,175.951l-9.56-9.56c-2.973-2.972-2.973-7.792,0-10.765c2.972-2.972,7.792-2.972,10.765,0
		l9.56,9.56c2.973,2.972,2.973,7.792,0,10.765C160.191,178.924,155.372,178.924,152.399,175.951z"/>
	<path style="fill:#FED159;" d="M53.642,129.445h-13.52c-4.204,0-7.612-3.408-7.612-7.612s3.408-7.612,7.612-7.612h13.52
		c4.204,0,7.612,3.408,7.612,7.612S57.846,129.445,53.642,129.445z"/>
	<path style="fill:#FED159;" d="M177.969,129.445h-13.52c-4.204,0-7.612-3.408-7.612-7.612s3.408-7.612,7.612-7.612h13.52
		c4.204,0,7.612,3.408,7.612,7.612S182.173,129.445,177.969,129.445z"/>
	<path style="fill:#FED159;" d="M54.927,175.951c-2.973-2.972-2.973-7.792,0-10.765l9.56-9.56c2.972-2.972,7.792-2.972,10.765,0
		s2.973,7.792,0,10.765l-9.56,9.56C62.719,178.924,57.9,178.924,54.927,175.951z"/>
	<path style="fill:#FED159;" d="M142.839,88.039c-2.972-2.972-2.973-7.792,0-10.765l9.56-9.561c2.972-2.972,7.792-2.973,10.765,0
		c2.973,2.972,2.973,7.792,0,10.765l-9.56,9.561C150.631,91.012,145.811,91.012,142.839,88.039z"/>
</g>
<polygon style="fill:#616584;" points="230.158,387.507 158.573,459.091 230.158,459.091 "/>
<polygon style="fill:#4D5370;" points="230.158,387.507 158.573,459.091 179.887,459.091 230.158,408.82 "/>
<path style="fill:#B78046;" d="M452.703,466.703H7.612c-4.204,0-7.612-3.408-7.612-7.612s3.408-7.612,7.612-7.612h445.092
	c4.204,0,7.612,3.408,7.612,7.612C460.315,463.295,456.907,466.703,452.703,466.703z"/>
<g>
</g>
<g>
</g>
<g>
</g>
<g>
</g>
<g>
</g>
<g>
</g>
<g>
</g>
<g>
</g>
<g>
</g>
<g>
</g>
<g>
</g>
<g>
</g>
<g>
</g>
<g>
</g>
<g>
</g>
</svg>
